<svg width="461" height="239" viewBox="0 0 461 239" fill="none" xmlns="http://www.w3.org/2000/svg">
<path fill-rule="evenodd" clip-rule="evenodd" d="M47.0035 119.212L135.561 0H229.908V238.423H182.224V166.556H111.037L57.9028 238.423H0L87.8761 119.212H47.0035ZM182.224 118.871V15.3272L105.247 118.871H182.224ZM363.713 0V190.739H424V238.423H250.291V190.739H316.028V47.6847H253.016V0H363.713ZM442.5 37C452.717 37 461 28.7173 461 18.5C461 8.28273 452.717 0 442.5 0C432.283 0 424 8.28273 424 18.5C424 28.7173 432.283 37 442.5 37Z" fill="#E1E1E1"/>
</svg>
